<svg xmlns="http://www.w3.org/2000/svg" viewBox="0 0 593 693"><defs><style>.cls-1{fill:#4d4d4d;}</style></defs><g id="Layer_2" data-name="Layer 2"><g id="Layer_1-2" data-name="Layer 1"><g id="_100.psd" data-name="100.psd"><path class="cls-1" d="M369,0h.5l15.92,10.63L363.07,52.39l3.81,2.7L364.57,59,385.5,72.49l30-48,14,6.5-40.91,71.36c3.09,3.08,3.09,3.08,2.16,6.79l7.58,5.21,1.39-2.23L413,120l52-59.47L476,70l-46.92,58.91,2.84,2.67c-6.72,7.81-13.25,15.58-20,23.12-1.91,2.13-1.81,3.85-.44,5.89,2.4,3.61,4.82,7.2,7.32,10.73a4.3,4.3,0,0,0,2.13,1.53c3.35,1,6.77,1.73,10.12,2.71a3.42,3.42,0,0,0,3.58-.86Q456.24,156.2,478,137.79c.5-.42,1-.79,2-1.55l14.59,13.61-15.2,17.51c-1.4,1.62-1.29,4.36.57,5.19,1.69.76,1.92,1.78,2.14,3.38.33,2.46,2.42,4.58,3.83,4.38,3.8-.52,7.58-1.09,11.38-1.61,2.8-.39,6.05-1.76,8.28-.79s3.4,4.28,5,6.57a4,4,0,0,1,.68,1,6.63,6.63,0,0,1,.44,2.33c-.2,2-.65,3.94-.86,5.92a2.71,2.71,0,0,1-2.53,2.74q-18,3.68-35.9,7.6a7.7,7.7,0,0,0-3.41,1.82c-3.49,3.22-6.86,6.57-10.28,9.87-2.69,2.6-2.7,2.6-.85,6.32,10.31-1.31,20.71-2.62,31.1-4,.54-.07,1.43-.29,1.5-.6.66-2.63,2.89-2.39,4.77-2.74,8.48-1.61,17-3.18,25.68-4.82,1,6.41,2,12.61,3,19L501.64,233c.79,4,1.51,7.65,2.22,11.23H527c.32,4.23.72,8.38.89,12.54a4,4,0,0,1-1.13,2.73q-4.38,4.1-9,7.88a5.5,5.5,0,0,1-3.13,1.08q-12.61.42-25.23.63c-4.56.08-9.11,0-13.83,0,0,5.58-.05,10.48.07,15.38a2.72,2.72,0,0,0,1.38,1.76c3.18,1.81,6.4,3.56,9.67,5.21a3.22,3.22,0,0,1,2.05,3c.54,7.13,1.22,14.25,1.87,21.52l26.92,5.49c.91-1.94,1.73-3.66,2.59-5.49l25.47,3c-.36,9.76-.7,19.31-1,29-10.94-1.61-21.72-2.81-32.32-4.89-7.89-1.55-15.54-4.29-23.32-6.41a17.06,17.06,0,0,0-4.65-.65c-17.25.1-34.5.28-51.74.43H429.8c-.3,5.22-.57,10.08-.85,15l71.59,12v8.25l29.54,5.6c-2.82.44-5.83.84-8.81,1.4a3.26,3.26,0,0,0-2.18,1.24,31.77,31.77,0,0,0-2.51,7c-1.08,5.64-1.82,11.34-2.75,17a12.5,12.5,0,0,1-.87,2.54,26,26,0,0,0-1.92,4.67c-1.13,6-2,12.11-3.07,18.38H494.85v20.91l35.66,1.06c-.35,7.91-.69,15.61-1,23.41L520,476.57c-1,7.75-2,15.3-3,22.9l13.47,4.07c-1.68,7.9-3.33,15.59-5,23.44-7.45-2.42-14.64-4.73-21.8-7.12a2.25,2.25,0,0,1-1.29-1.52c-.22-1.56-1.14-2.19-2.46-2.75q-21.53-9-43-18.09l-5.81-2.4c-.09,1.24-.16,2.22-.24,3.34L435,494.53c.33,8.5.72,16.65.92,24.81a2.92,2.92,0,0,0,2.16,3.07q43.1,17.88,86.19,35.81a6.12,6.12,0,0,0,3.54.27c11.8-2.87,23.58-5.84,35.36-8.79L586,544c.71,2.35,1.35,4.49,2,6.62q2.49,7.94,5,15.85v1l-37.48,10c1.71,6.38,3.31,12.36,5,18.5L511,609.5c-2.23-6-4.47-11.79-6.56-17.65a5,5,0,0,0-3.29-3.32c-14-5.39-28.07-10.88-42.09-16.32-3.14-1.22-6.29-2.42-9.54-3.66-1.75,4.29-3.39,8.33-5.06,12.4l-11-4.9,2.5,97.37c-.83.26-1.38.46-1.94.62q-23.62,6.74-47.25,13.48c-6.12,1.76-12.21,3.65-18.31,5.48h-1c-2.71-5.53-5.67-11-8.06-16.61-3.18-7.52-7.6-13.94-14.12-18.93a50.34,50.34,0,0,1-5.7-5.23,29.54,29.54,0,0,0-10.29-6.84c-14.18-5.88-27.87-12.64-39.81-22.5a18.39,18.39,0,0,0-2.1-1.36q-53.54-33.06-107.08-66.13c-6.51-4-13.18-7.86-19.31-12.43-13.15-9.8-26-20-39-30.07-3.55-2.76-7.41-5.25-10.46-8.49q-33.24-35.3-66.17-70.88a9,9,0,0,1-1.74-2.4,89,89,0,0,1-7.11-27.68c-1.6-20.34-2.75-40.72-4.09-61.08-1.06-16.2-2.06-32.42-3.19-48.62-1.39-19.69-2.88-39.37-4.33-59.05-.67-9-.4-18.14-2.24-26.86-3-14.43-5.53-29.1-11.92-42.67C6.93,156.92,3.59,148.4,0,140v-1c3-3.72,6.16-7.37,10.6-9.52a7.22,7.22,0,0,1,3.22-.87c4.92.16,9.84.31,14.72.82a10.43,10.43,0,0,0,7.81-2.55l-1.75-2.83,1.81-2.66L26,106.5l13-9,3.44,3-10.94,7c2.31,3.19,4.4,6.06,6.66,9.19,7-4.92,13.63-9.8,20.48-14.37,3.23-2.15,5.16-4.6,5.05-8.65a24.62,24.62,0,0,1,1-6.14A4.58,4.58,0,0,1,66,85.29q8.83-7.91,17.77-15.7a11.94,11.94,0,0,1,2.79-2c5.32-2.35,10.56-5,16.08-6.79C111.2,58,119.79,55,128.59,53.61c15.7-2.45,31.59-3.68,47.38-5.58a21.45,21.45,0,0,1,10.93,1.28c4.38,1.75,8.92,3.08,13.58,4.66L205,44c1.63.64,3.07,1.23,4.53,1.79s3.44.93,3,3.42c-.05.34.9,1,1.51,1.26Q248,62.29,282,73.94a3.05,3.05,0,0,0,2.59-.47c2-2,3.75-4.16,5.67-6.35l9.16,3.9-4.25,7.2c2,1.25,3.13.49,4.25-1.14,2.58-3.75,5.35-7.38,8-11.06l17,7Z"/></g></g></g></svg>